<svg width="60" height="60" viewBox="0 0 60 60" fill="none" xmlns="http://www.w3.org/2000/svg">
<path d="M7.07391 19.5186H10.3552V34.7075C8.67234 35.0271 7.43625 35.1551 6.09422 35.1551C2.08828 35.1551 0 33.3439 0 29.8704C0 26.5254 2.21625 24.3523 5.64656 24.3523C6.17906 24.3523 6.58406 24.3945 7.07391 24.5225V19.5186ZM7.07391 27.1639C6.69047 27.0364 6.37078 26.9937 5.96625 26.9937C4.30406 26.9937 3.34547 28.0165 3.34547 29.8062C3.34547 31.5532 4.26141 32.5123 5.94469 32.5123C6.30703 32.5123 6.60563 32.4907 7.07438 32.427L7.07391 27.1639Z" fill="white"/>
<path d="M15.5752 24.586V32.1929C15.5752 34.8132 15.3834 36.0704 14.8083 37.1569C14.2753 38.2018 13.5722 38.8618 12.1233 39.5864L9.0764 38.1375C10.5253 37.4555 11.228 36.8593 11.6756 35.9429C12.1444 35.0054 12.2944 33.9188 12.2944 31.0632V24.586H15.5752ZM12.2939 19.5361H15.5752V22.9027H12.2939V19.5361ZM17.5575 25.3318C19.0059 24.6502 20.3911 24.3521 21.9042 24.3521C23.587 24.3521 24.6951 24.7993 25.1855 25.673C25.462 26.1629 25.5473 26.8022 25.5473 28.1658V34.8347C24.0773 35.048 22.2239 35.1971 20.8598 35.1971C18.1116 35.1971 16.8755 34.238 16.8755 32.1075C16.8755 29.806 18.5161 28.741 22.5431 28.3997V27.6755C22.5431 27.0788 22.245 26.866 21.4139 26.866C20.1998 26.866 18.8358 27.2068 17.557 27.8677V25.3318H17.5575ZM22.6922 30.5522C20.5191 30.765 19.8159 31.1063 19.8159 31.9585C19.8159 32.5974 20.2209 32.896 21.1158 32.896C21.6056 32.896 22.0533 32.8538 22.6922 32.7469V30.5522ZM27.1462 25.0974C29.085 24.5864 30.683 24.3521 32.3025 24.3521C33.9858 24.3521 35.2003 24.735 35.925 25.4813C36.607 26.1844 36.8198 26.9508 36.8198 28.5919V35.0264H33.5386V28.7204C33.5386 27.4632 33.112 26.9944 31.9402 26.9944C31.493 26.9944 31.0884 27.0366 30.4275 27.2288V35.0269H27.1462V25.0974ZM38.0948 36.8161C39.2456 37.4129 40.3959 37.6899 41.6105 37.6899C43.762 37.6899 44.6784 36.8161 44.6784 34.7279V34.6641C44.0395 34.9838 43.4002 35.1118 42.548 35.1118C39.6712 35.1118 37.8389 33.2152 37.8389 30.211C37.8389 26.4821 40.545 24.3727 45.3389 24.3727C46.7452 24.3727 48.045 24.5218 49.6219 24.8414L48.4983 27.2086C47.6245 27.038 48.428 27.1852 47.768 27.1214V27.4627L47.8102 28.8474L47.8317 30.6371C47.8533 31.0847 47.8533 31.5324 47.8744 31.9796V32.8749C47.8744 35.6874 47.64 37.0079 46.9369 38.0944C45.9141 39.6929 44.1459 40.4813 41.6316 40.4813C40.3528 40.4813 39.2456 40.2891 38.0944 39.8419V36.8157L38.0948 36.8161ZM44.6152 27.0146H44.2739C43.635 26.9935 42.8892 27.1636 42.3773 27.4833C41.5894 27.931 41.1844 28.7405 41.1844 29.8913C41.1844 31.5319 41.9939 32.4694 43.4428 32.4694C43.8905 32.4694 44.2528 32.3841 44.6784 32.2566V31.1269C44.6784 30.7439 44.6573 30.3174 44.6573 29.8702L44.6362 28.3575L44.6147 27.2705V27.015L44.6152 27.0146ZM54.7158 24.3094C57.997 24.3094 60 26.3761 60 29.7211C60 33.1519 57.9122 35.3039 54.5878 35.3039C51.3066 35.3039 49.2825 33.2368 49.2825 29.9133C49.2825 26.461 51.3708 24.3089 54.7158 24.3089V24.3094ZM54.6516 32.6616C55.9087 32.6616 56.655 31.6172 56.655 29.8064C56.655 28.0168 55.9303 26.9513 54.6736 26.9513C53.3733 26.9513 52.6275 27.9957 52.6275 29.806C52.6275 31.6177 53.3733 32.6616 54.6516 32.6616Z" fill="white"/>
</svg>
