<svg width="60" height="60" viewBox="0 0 60 60" fill="none" xmlns="http://www.w3.org/2000/svg">
<path d="M59.3508 33.8957L56.0536 23.7486L49.5188 3.63785C49.1832 2.60379 47.7188 2.60379 47.3831 3.63785L40.8488 23.7486H19.1513L12.6169 3.63785C12.2808 2.60379 10.8169 2.60379 10.4808 3.63785L3.9469 23.7491L0.649242 33.8957C0.502576 34.3468 0.502497 34.8328 0.649016 35.284C0.795535 35.7351 1.08113 36.1283 1.46487 36.4072L30 57.1382L58.5347 36.4068C58.9183 36.1279 59.2038 35.7347 59.3503 35.2837C59.4968 34.8326 59.4968 34.3467 59.3503 33.8957" fill="#FC6D26"/>
<path d="M30 57.1381L40.8487 23.749H19.1512L30 57.1376V57.1381Z" fill="#E24329"/>
<path d="M30 57.1381L19.1513 23.749H3.9469L30 57.1376V57.1381Z" fill="#FC6D26"/>
<path d="M3.94686 23.748L0.648734 33.8951C0.50203 34.3461 0.501933 34.8321 0.648459 35.2832C0.794985 35.7343 1.08061 36.1274 1.46436 36.4062L30 57.1376L3.94686 23.7485V23.748Z" fill="#FCA326"/>
<path d="M3.9469 23.7486H19.1513L12.6169 3.63785C12.2808 2.60379 10.8169 2.60379 10.4808 3.63785L3.9469 23.7491V23.7486Z" fill="#E24329"/>
<path d="M30 57.1381L40.8487 23.749H56.0536L30 57.1376V57.1381Z" fill="#FC6D26"/>
<path d="M56.0531 23.748L59.3508 33.8951C59.4975 34.3461 59.4976 34.8321 59.3511 35.2832C59.2045 35.7343 58.9189 36.1274 58.5352 36.4062L30 57.1376L56.0531 23.7485V23.748Z" fill="#FCA326"/>
<path d="M56.0531 23.7482H40.8492L47.3836 3.63785C47.7197 2.60379 49.1836 2.60379 49.5197 3.63785L56.0541 23.7486L56.0531 23.7482Z" fill="#E24329"/>
</svg>
