<svg width="60" height="60" viewBox="0 0 60 60" fill="none" xmlns="http://www.w3.org/2000/svg">
<path d="M29.7145 5.74158C27.7354 5.75096 25.8464 5.91924 24.1833 6.21361C19.2848 7.07893 18.3961 8.89018 18.3961 12.231V16.6424H29.9709V18.1128H14.0517C10.6879 18.1128 7.74232 20.1346 6.82075 23.9821C5.75763 28.3906 5.71075 31.1422 6.82075 35.7458C7.64341 39.1728 9.60841 41.6141 12.9726 41.6141H16.9528V36.3256C16.9528 32.5049 20.2579 29.135 24.1837 29.135H35.7454C38.9639 29.135 41.5326 26.4847 41.5326 23.2531V12.2314C41.5326 9.09408 38.8861 6.73768 35.7454 6.21408C33.7561 5.88315 31.6931 5.73268 29.7145 5.74158V5.74158ZM23.4548 9.28955C24.6501 9.28955 25.627 10.2819 25.627 11.5025C25.627 12.718 24.6506 13.701 23.4548 13.701C22.2548 13.701 21.2831 12.718 21.2831 11.5025C21.2826 10.2819 22.2548 9.28955 23.4548 9.28955V9.28955Z" fill="url(#paint0_linear_236_221)"/>
<path d="M42.976 18.1128V23.2531C42.976 27.2375 39.5972 30.5914 35.745 30.5914H24.1833C21.0164 30.5914 18.3961 33.3022 18.3961 36.4737V47.4964C18.3961 50.6328 21.1233 52.4782 24.1833 53.3778C27.8471 54.4545 31.3608 54.6495 35.745 53.3778C38.6588 52.5336 41.5322 50.8357 41.5322 47.4964V43.0845H29.971V41.6136H47.3203C50.6841 41.6136 51.9385 39.2675 53.1085 35.7453C54.3169 32.1195 54.2649 28.6325 53.1085 23.9815C52.2769 20.6323 50.6892 18.1123 47.3203 18.1123H42.976V18.1128ZM36.473 46.0254C37.6735 46.0254 38.6452 47.0084 38.6452 48.2248C38.6452 49.4445 37.673 50.4368 36.473 50.4368C35.2777 50.4368 34.3013 49.4445 34.3013 48.2248C34.3013 47.0084 35.2777 46.0254 36.473 46.0254V46.0254Z" fill="url(#paint1_linear_236_221)"/>
<path opacity="0.444" d="M45.6136 56.0607C45.6136 57.7215 38.6686 59.0682 30.1022 59.0682C21.5353 59.0682 14.5903 57.7215 14.5903 56.0607C14.5903 54.3995 21.5349 53.0527 30.1022 53.0527C38.6686 53.0527 45.6136 54.399 45.6136 56.0607Z" fill="url(#paint2_radial_236_221)"/>
<defs>
<linearGradient id="paint0_linear_236_221" x1="4.84538" y1="7.12094" x2="31.5425" y2="29.8881" gradientUnits="userSpaceOnUse">
<stop stop-color="#5A9FD4"/>
<stop offset="1" stop-color="#306998"/>
</linearGradient>
<linearGradient id="paint1_linear_236_221" x1="41.587" y1="44.0404" x2="32.013" y2="30.6144" gradientUnits="userSpaceOnUse">
<stop stop-color="#FFD43B"/>
<stop offset="1" stop-color="#FFE873"/>
</linearGradient>
<radialGradient id="paint2_radial_236_221" cx="0" cy="0" r="1" gradientUnits="userSpaceOnUse" gradientTransform="translate(30.0395 55.9746) rotate(-90) scale(3.00859 13.2252)">
<stop stop-color="#B8B8B8" stop-opacity="0.498"/>
<stop offset="1" stop-color="#7F7F7F" stop-opacity="0"/>
</radialGradient>
</defs>
</svg>
